<svg version="1.1" id="Layer_1" xmlns="http://www.w3.org/2000/svg" xmlns:xlink="http://www.w3.org/1999/xlink" x="0px" y="0px"
	 width="100%" viewBox="0 0 606 381" enable-background="new 0 0 606 381" xml:space="preserve">
<path fill="#232F3E" opacity="1.000000" stroke="none" 
	d="
M449.000000,382.000000 
	C299.333374,382.000000 150.166733,382.000000 1.000080,382.000000 
	C1.000053,255.000061 1.000053,128.000137 1.000027,1.000148 
	C202.999878,1.000099 404.999756,1.000099 606.999756,1.000049 
	C606.999817,127.999855 606.999817,254.999710 606.999878,381.999786 
	C554.500000,382.000000 502.000000,382.000000 449.000000,382.000000 
M245.079254,63.561146 
	C242.875580,61.862534 240.837540,59.051651 238.434219,58.693745 
	C233.214401,57.916405 227.807510,58.330250 222.478180,58.378181 
	C219.316589,58.406616 217.941788,60.211273 218.458099,63.278713 
	C218.760208,65.073479 219.312164,66.833458 219.842911,68.581390 
	C230.801666,104.673195 241.816269,140.748108 252.725357,176.854904 
	C258.433960,195.749191 256.324463,193.615555 275.815857,193.707306 
	C283.505585,193.743500 285.120697,192.439911 286.883179,185.087326 
	C292.618286,161.161819 298.297394,137.222885 304.012939,113.292664 
	C305.839447,105.645210 307.712311,98.008827 309.563965,90.367371 
	C311.060699,92.256615 311.569000,94.079796 312.012573,95.918587 
	C319.302734,126.138184 326.643280,156.345886 333.811401,186.594421 
	C335.013153,191.665558 337.791321,193.983871 342.890839,193.876312 
	C346.388336,193.802551 349.888733,193.879623 353.387756,193.864639 
	C361.367218,193.830475 362.728973,192.860001 365.120575,185.208099 
	C374.439148,155.393387 383.736145,125.571930 393.031006,95.749832 
	C396.195404,85.596985 399.453766,75.470886 402.426453,65.261871 
	C403.935577,60.079140 402.563354,58.465134 397.294312,58.346909 
	C394.296600,58.279652 391.296143,58.327499 388.296936,58.333328 
	C378.898102,58.351589 377.569214,59.337429 375.217560,68.448570 
	C368.446686,94.681480 361.721436,120.926155 354.957886,147.160965 
	C353.310242,153.551758 351.584381,159.922379 349.522339,167.707230 
	C346.438599,154.664490 343.713013,143.185913 341.011902,131.701569 
	C335.911560,110.016327 330.854889,88.320755 325.716095,66.644646 
	C324.074188,59.718861 322.440491,58.477501 315.418823,58.345360 
	C312.254089,58.285797 309.086670,58.290695 305.921631,58.341141 
	C298.235901,58.463631 296.778961,59.622978 295.007141,67.137222 
	C289.627441,89.952118 284.286377,112.776115 278.905670,135.590759 
	C276.609955,145.324753 274.253143,155.044357 271.573944,166.232727 
	C270.745697,163.271957 270.319489,161.853561 269.952209,160.420059 
	C261.744019,128.381027 253.542282,96.340309 245.079254,63.561146 
M121.440460,276.035889 
	C208.567001,329.649109 301.451935,341.901154 399.706116,314.400482 
	C431.672302,305.453339 461.615814,291.934021 488.562958,272.260864 
	C491.700958,269.969910 494.293457,267.185699 492.000854,263.025604 
	C489.741608,258.925995 485.993835,258.790009 481.998291,260.199768 
	C481.058197,260.531433 480.151886,260.958374 479.227478,261.335175 
	C409.617065,289.708771 337.488037,300.919250 262.566956,293.165619 
	C199.651718,286.654510 140.473846,268.321411 85.321465,237.223618 
	C84.161446,236.569534 83.012177,235.449951 81.820358,235.397324 
	C79.729523,235.304993 77.609581,235.871857 75.501831,236.162613 
	C75.934792,238.111588 76.203651,240.119781 76.875641,241.982513 
	C77.174576,242.811142 78.242218,243.404587 79.035530,244.006485 
	C92.956276,254.568192 106.888580,265.114685 121.440460,276.035889 
M178.293274,100.425110 
	C178.293274,106.182869 178.293274,111.940636 178.293274,117.209534 
	C167.605026,116.036461 156.922638,114.405617 146.182632,113.805008 
	C133.654526,113.104408 121.622307,115.488724 111.085953,122.892548 
	C96.340683,133.253967 91.842567,147.938019 94.487846,164.982635 
	C97.010117,181.234543 106.681747,192.010483 122.716652,195.599854 
	C142.681503,200.068939 160.692703,195.449280 175.682999,181.009338 
	C177.204041,179.544159 178.195938,177.529663 179.557907,175.593063 
	C182.831406,180.906830 185.037704,185.020889 187.747894,188.770767 
	C192.589294,195.469391 194.945633,195.770889 201.731949,191.270996 
	C204.088776,189.708206 206.482391,188.195602 208.777603,186.546509 
	C211.384796,184.673248 212.630539,182.040802 210.834305,179.184631 
	C203.598221,167.678574 203.766205,154.884857 203.739410,142.008530 
	C203.706146,126.027992 203.913803,110.007874 202.882446,94.078339 
	C201.583282,74.012520 190.090866,61.184662 170.493759,56.842476 
	C151.267365,52.582420 132.450027,54.668739 114.176331,61.833099 
	C102.897522,66.255051 102.775307,66.524261 102.864662,78.519493 
	C102.916168,85.433159 104.304649,86.368019 110.971046,83.940086 
	C112.219322,83.485466 113.428635,82.925003 114.669502,82.448769 
	C127.235115,77.626305 140.094894,74.848656 153.697983,75.936050 
	C169.165939,77.172523 176.612671,84.151962 178.293274,100.425110 
M481.370697,118.162506 
	C470.890442,114.455917 460.251404,111.135086 449.985077,106.908882 
	C442.989807,104.029243 439.905273,98.099419 440.810394,90.307541 
	C441.686737,82.763412 446.420258,78.341553 453.221863,77.141632 
	C460.831268,75.799187 468.817474,74.920197 476.432465,75.747452 
	C484.222015,76.593651 491.761719,79.747009 499.407898,81.900818 
	C501.934357,82.612488 504.606812,84.075203 506.132782,80.373596 
	C509.284302,72.728622 506.074554,63.836739 498.298187,60.918694 
	C491.807526,58.483093 484.993134,56.508160 478.149506,55.493996 
	C460.887421,52.935913 444.166504,54.287144 429.689789,65.504181 
	C409.620117,81.054794 410.485046,110.669357 431.715698,124.632584 
	C437.309998,128.311920 443.939453,130.541153 450.285767,132.924484 
	C460.071930,136.599640 470.427551,138.987442 479.805786,143.463211 
	C492.215149,149.385590 492.070831,165.453568 480.133728,172.391663 
	C478.007935,173.627228 475.618256,174.539795 473.237396,175.183334 
	C461.326599,178.402847 449.416534,177.301498 437.675079,174.396713 
	C431.896912,172.967224 426.364044,170.555786 420.702026,168.642471 
	C418.120453,167.770096 415.323181,166.820984 414.070404,170.461151 
	C410.997894,179.388794 414.413635,187.272110 423.171265,190.734161 
	C436.334076,195.937683 450.076416,198.424881 464.220276,197.664185 
	C476.866486,196.984055 488.828217,193.871262 499.179810,185.981781 
	C519.959900,170.144165 520.906006,133.983948 491.437714,121.955696 
	C488.363556,120.700890 485.222595,119.609688 481.370697,118.162506 
M500.526031,225.251724 
	C483.847076,225.687546 467.692017,228.354950 453.260651,237.345520 
	C450.846619,238.849457 449.329926,241.793793 447.398590,244.072540 
	C450.252075,244.576828 453.117859,245.573502 455.957001,245.502716 
	C470.558929,245.138657 485.163452,243.919891 499.748260,244.156616 
	C509.924225,244.321777 513.684143,249.124359 511.218170,258.840607 
	C507.510986,273.447235 502.420471,287.699524 498.103973,302.157959 
	C497.420868,304.446014 497.713623,307.025421 497.555176,309.470123 
	C499.999359,308.494263 502.444702,307.521301 504.884857,306.535400 
	C505.029114,306.477142 505.136963,306.320984 505.252991,306.201874 
	C523.681152,287.279022 532.340820,264.370941 533.052551,238.197617 
	C533.196899,232.890625 530.737305,229.430023 525.617188,228.560822 
	C517.612488,227.201904 509.525116,226.330032 500.526031,225.251724 
z"/>
<path fill="#FBFBFB" opacity="1.000000" stroke="none" 
	d="
M245.209290,63.930534 
	C253.542282,96.340309 261.744019,128.381027 269.952209,160.420059 
	C270.319489,161.853561 270.745697,163.271957 271.573944,166.232727 
	C274.253143,155.044357 276.609955,145.324753 278.905670,135.590759 
	C284.286377,112.776115 289.627441,89.952118 295.007141,67.137222 
	C296.778961,59.622978 298.235901,58.463631 305.921631,58.341141 
	C309.086670,58.290695 312.254089,58.285797 315.418823,58.345360 
	C322.440491,58.477501 324.074188,59.718861 325.716095,66.644646 
	C330.854889,88.320755 335.911560,110.016327 341.011902,131.701569 
	C343.713013,143.185913 346.438599,154.664490 349.522339,167.707230 
	C351.584381,159.922379 353.310242,153.551758 354.957886,147.160965 
	C361.721436,120.926155 368.446686,94.681480 375.217560,68.448570 
	C377.569214,59.337429 378.898102,58.351589 388.296936,58.333328 
	C391.296143,58.327499 394.296600,58.279652 397.294312,58.346909 
	C402.563354,58.465134 403.935577,60.079140 402.426453,65.261871 
	C399.453766,75.470886 396.195404,85.596985 393.031006,95.749832 
	C383.736145,125.571930 374.439148,155.393387 365.120575,185.208099 
	C362.728973,192.860001 361.367218,193.830475 353.387756,193.864639 
	C349.888733,193.879623 346.388336,193.802551 342.890839,193.876312 
	C337.791321,193.983871 335.013153,191.665558 333.811401,186.594421 
	C326.643280,156.345886 319.302734,126.138184 312.012573,95.918587 
	C311.569000,94.079796 311.060699,92.256615 309.563965,90.367371 
	C307.712311,98.008827 305.839447,105.645210 304.012939,113.292664 
	C298.297394,137.222885 292.618286,161.161819 286.883179,185.087326 
	C285.120697,192.439911 283.505585,193.743500 275.815857,193.707306 
	C256.324463,193.615555 258.433960,195.749191 252.725357,176.854904 
	C241.816269,140.748108 230.801666,104.673195 219.842911,68.581390 
	C219.312164,66.833458 218.760208,65.073479 218.458099,63.278713 
	C217.941788,60.211273 219.316589,58.406616 222.478180,58.378181 
	C227.807510,58.330250 233.214401,57.916405 238.434219,58.693745 
	C240.837540,59.051651 242.875580,61.862534 245.209290,63.930534 
z"/>
<path fill="#FD9801" opacity="1.000000" stroke="none" 
	d="
M121.129410,275.850159 
	C106.888580,265.114685 92.956276,254.568192 79.035530,244.006485 
	C78.242218,243.404587 77.174576,242.811142 76.875641,241.982513 
	C76.203651,240.119781 75.934792,238.111588 75.501831,236.162613 
	C77.609581,235.871857 79.729523,235.304993 81.820358,235.397324 
	C83.012177,235.449951 84.161446,236.569534 85.321465,237.223618 
	C140.473846,268.321411 199.651718,286.654510 262.566956,293.165619 
	C337.488037,300.919250 409.617065,289.708771 479.227478,261.335175 
	C480.151886,260.958374 481.058197,260.531433 481.998291,260.199768 
	C485.993835,258.790009 489.741608,258.925995 492.000854,263.025604 
	C494.293457,267.185699 491.700958,269.969910 488.562958,272.260864 
	C461.615814,291.934021 431.672302,305.453339 399.706116,314.400482 
	C301.451935,341.901154 208.567001,329.649109 121.129410,275.850159 
z"/>
<path fill="#FCFCFC" opacity="1.000000" stroke="none" 
	d="
M178.246765,99.980988 
	C176.612671,84.151962 169.165939,77.172523 153.697983,75.936050 
	C140.094894,74.848656 127.235115,77.626305 114.669502,82.448769 
	C113.428635,82.925003 112.219322,83.485466 110.971046,83.940086 
	C104.304649,86.368019 102.916168,85.433159 102.864662,78.519493 
	C102.775307,66.524261 102.897522,66.255051 114.176331,61.833099 
	C132.450027,54.668739 151.267365,52.582420 170.493759,56.842476 
	C190.090866,61.184662 201.583282,74.012520 202.882446,94.078339 
	C203.913803,110.007874 203.706146,126.027992 203.739410,142.008530 
	C203.766205,154.884857 203.598221,167.678574 210.834305,179.184631 
	C212.630539,182.040802 211.384796,184.673248 208.777603,186.546509 
	C206.482391,188.195602 204.088776,189.708206 201.731949,191.270996 
	C194.945633,195.770889 192.589294,195.469391 187.747894,188.770767 
	C185.037704,185.020889 182.831406,180.906830 179.557907,175.593063 
	C178.195938,177.529663 177.204041,179.544159 175.682999,181.009338 
	C160.692703,195.449280 142.681503,200.068939 122.716652,195.599854 
	C106.681747,192.010483 97.010117,181.234543 94.487846,164.982635 
	C91.842567,147.938019 96.340683,133.253967 111.085953,122.892548 
	C121.622307,115.488724 133.654526,113.104408 146.182632,113.805008 
	C156.922638,114.405617 167.605026,116.036461 178.293274,117.209534 
	C178.293274,111.940636 178.293274,106.182869 178.246765,99.980988 
M178.923325,136.037735 
	C173.696487,134.840973 168.487534,132.748596 163.238907,132.643860 
	C153.852234,132.456604 144.189453,132.307159 135.107254,134.281616 
	C124.622566,136.560974 119.787308,145.778244 120.593521,157.454483 
	C121.340103,168.267014 126.485336,174.793900 136.172546,176.596527 
	C139.400436,177.197189 142.838837,177.251465 146.114532,176.912720 
	C163.351425,175.130219 179.514267,166.122650 179.001221,142.438644 
	C178.961548,140.607773 178.993179,138.775375 178.923325,136.037735 
z"/>
<path fill="#FBFCFC" opacity="1.000000" stroke="none" 
	d="
M481.741669,118.302544 
	C485.222595,119.609688 488.363556,120.700890 491.437714,121.955696 
	C520.906006,133.983948 519.959900,170.144165 499.179810,185.981781 
	C488.828217,193.871262 476.866486,196.984055 464.220276,197.664185 
	C450.076416,198.424881 436.334076,195.937683 423.171265,190.734161 
	C414.413635,187.272110 410.997894,179.388794 414.070404,170.461151 
	C415.323181,166.820984 418.120453,167.770096 420.702026,168.642471 
	C426.364044,170.555786 431.896912,172.967224 437.675079,174.396713 
	C449.416534,177.301498 461.326599,178.402847 473.237396,175.183334 
	C475.618256,174.539795 478.007935,173.627228 480.133728,172.391663 
	C492.070831,165.453568 492.215149,149.385590 479.805786,143.463211 
	C470.427551,138.987442 460.071930,136.599640 450.285767,132.924484 
	C443.939453,130.541153 437.309998,128.311920 431.715698,124.632584 
	C410.485046,110.669357 409.620117,81.054794 429.689789,65.504181 
	C444.166504,54.287144 460.887421,52.935913 478.149506,55.493996 
	C484.993134,56.508160 491.807526,58.483093 498.298187,60.918694 
	C506.074554,63.836739 509.284302,72.728622 506.132782,80.373596 
	C504.606812,84.075203 501.934357,82.612488 499.407898,81.900818 
	C491.761719,79.747009 484.222015,76.593651 476.432465,75.747452 
	C468.817474,74.920197 460.831268,75.799187 453.221863,77.141632 
	C446.420258,78.341553 441.686737,82.763412 440.810394,90.307541 
	C439.905273,98.099419 442.989807,104.029243 449.985077,106.908882 
	C460.251404,111.135086 470.890442,114.455917 481.741669,118.302544 
z"/>
<path fill="#FB9701" opacity="1.000000" stroke="none" 
	d="
M500.999390,225.251770 
	C509.525116,226.330032 517.612488,227.201904 525.617188,228.560822 
	C530.737305,229.430023 533.196899,232.890625 533.052551,238.197617 
	C532.340820,264.370941 523.681152,287.279022 505.252991,306.201874 
	C505.136963,306.320984 505.029114,306.477142 504.884857,306.535400 
	C502.444702,307.521301 499.999359,308.494263 497.555176,309.470093 
	C497.713623,307.025421 497.420868,304.446014 498.103973,302.157959 
	C502.420471,287.699524 507.510986,273.447235 511.218170,258.840607 
	C513.684143,249.124359 509.924225,244.321777 499.748260,244.156616 
	C485.163452,243.919891 470.558929,245.138657 455.957001,245.502716 
	C453.117859,245.573502 450.252075,244.576828 447.398590,244.072540 
	C449.329926,241.793793 450.846619,238.849457 453.260651,237.345520 
	C467.692017,228.354950 483.847076,225.687546 500.999390,225.251770 
z"/>
<path fill="#253140" opacity="1.000000" stroke="none" 
	d="
M178.957489,136.490707 
	C178.993179,138.775375 178.961548,140.607773 179.001221,142.438644 
	C179.514267,166.122650 163.351425,175.130219 146.114532,176.912720 
	C142.838837,177.251465 139.400436,177.197189 136.172546,176.596527 
	C126.485336,174.793900 121.340103,168.267014 120.593521,157.454483 
	C119.787308,145.778244 124.622566,136.560974 135.107254,134.281616 
	C144.189453,132.307159 153.852234,132.456604 163.238907,132.643860 
	C168.487534,132.748596 173.696487,134.840973 178.957489,136.490707 
z"/>
</svg>